HIERARCHY
ROOT Hips
{
	OFFSET -0.001795 -0.223333 0.028219
	CHANNELS 6 Xposition Yposition Zposition Zrotation Yrotation Xrotation 
	JOINT LeftUpLeg
	{
		OFFSET 0.069520 -0.091406 -0.006815
		CHANNELS 3 Zrotation Yrotation Xrotation
		JOINT LeftLeg
		{
			OFFSET 0.034277 -0.375199 -0.004496
			CHANNELS 3 Zrotation Yrotation Xrotation
			JOINT LeftFoot
			{
				OFFSET -0.013596 -0.397961 -0.043693
				CHANNELS 3 Zrotation Yrotation Xrotation
				JOINT LeftToe
				{
					OFFSET 0.026358 -0.055791 0.119288
					CHANNELS 3 Zrotation Yrotation Xrotation
					End Site
					{
						OFFSET 0.000000 0.000000 0.000000
					}
				}
			}
		}
	}
	JOINT RightUpLeg
	{
		OFFSET -0.067670 -0.090522 -0.004320
		CHANNELS 3 Zrotation Yrotation Xrotation
		JOINT RightLeg
		{
			OFFSET -0.038290 -0.382569 -0.008850
			CHANNELS 3 Zrotation Yrotation Xrotation
			JOINT RightFoot
			{
				OFFSET 0.015774 -0.398415 -0.042312
				CHANNELS 3 Zrotation Yrotation Xrotation
				JOINT RightToe
				{
					OFFSET -0.025372 -0.048144 0.123348
					CHANNELS 3 Zrotation Yrotation Xrotation
					End Site
					{
						OFFSET 0.000000 0.000000 0.000000
					}
				}
			}
		}
	}
	JOINT Spine
	{
		OFFSET -0.002533 0.108963 -0.026696
		CHANNELS 3 Zrotation Yrotation Xrotation
		JOINT Spine1
		{
			OFFSET 0.005487 0.135180 0.001092
			CHANNELS 3 Zrotation Yrotation Xrotation
			JOINT Spine2
			{
				OFFSET 0.001457 0.052922 0.025425
				CHANNELS 3 Zrotation Yrotation Xrotation
				JOINT Neck
				{
					OFFSET -0.002778 0.213870 -0.042857
					CHANNELS 3 Zrotation Yrotation Xrotation
					JOINT Head
					{
						OFFSET 0.005152 0.064970 0.051349
						CHANNELS 3 Zrotation Yrotation Xrotation
						End Site
						{
							OFFSET 0.000000 0.000000 0.000000
						}
					}
				}
				JOINT LeftShoulder
				{
					OFFSET 0.078845 0.121749 -0.034090
					CHANNELS 3 Zrotation Yrotation Xrotation
					JOINT LeftArm
					{
						OFFSET 0.090977 0.030469 -0.008868
						CHANNELS 3 Zrotation Yrotation Xrotation
						JOINT LeftForeArm
						{
							OFFSET 0.259612 -0.012772 -0.027456
							CHANNELS 3 Zrotation Yrotation Xrotation
							JOINT LeftHand
							{
								OFFSET 0.249234 0.008986 -0.001171
								CHANNELS 3 Zrotation Yrotation Xrotation
								End Site
								{
									OFFSET 0.000000 0.000000 0.000000
								}
							}
						}
					}
				}
				JOINT RightShoulder
				{
					OFFSET -0.081759 0.118833 -0.038615
					CHANNELS 3 Zrotation Yrotation Xrotation
					JOINT RightArm
					{
						OFFSET -0.096012 0.032551 -0.009143
						CHANNELS 3 Zrotation Yrotation Xrotation
						JOINT RightForeArm
						{
							OFFSET -0.253742 -0.013329 -0.021401
							CHANNELS 3 Zrotation Yrotation Xrotation
							JOINT RightHand
							{
								OFFSET -0.255298 0.007772 -0.005559
								CHANNELS 3 Zrotation Yrotation Xrotation
								End Site
								{
									OFFSET 0.000000 0.000000 0.000000
								}
							}
						}
					}
				}
			}
		}
	}
}
MOTION
Frames: 6
Frame Time: 0.050000
0.000000 0.940158 0.000000 0.170079 -2.758864 5.516729 -2.679926 0.158616 0.841711 0.183445 0.228733 -6.824063 0.260025 1.438043 2.177097 0.000000 0.000000 0.000000 1.975062 0.261295 -2.990234 -0.402648 0.000276 -0.901166 4.083961 9.332700 1.575528 0.000000 0.000000 0.000000 6.073338 0.001917 -1.732787 -0.901020 0.414513 2.142928 -2.120211 0.738529 5.655215 6.018271 -1.951519 -20.481140 0.000000 0.000000 0.000000 -26.193572 -10.699963 4.242772 -27.951623 1.173027 -3.505213 11.942102 -16.942684 -1.084823 0.000000 0.000000 0.000000 22.389033 5.623116 1.048516 30.628783 -1.187754 -3.136454 -11.416506 21.064487 -1.219123 0.000000 0.000000 0.000000 
-0.002176 0.938293 0.003055 -0.209489 -3.224270 6.043322 -1.719002 0.165535 1.167856 -0.639057 0.298460 -7.611880 0.435942 2.015547 2.799924 0.000000 0.000000 0.000000 2.327640 0.377534 -4.054034 -0.277219 0.010520 -0.385474 3.858303 8.730376 1.602705 0.000000 0.000000 0.000000 6.874653 -0.029664 -1.626543 -1.333460 0.632529 2.877658 -3.284515 1.736935 4.868064 8.071854 -2.620432 -22.624937 0.000000 0.000000 0.000000 -25.062409 -11.840384 4.515299 -29.461783 1.578878 -3.642825 13.941920 -16.302981 -1.345396 0.000000 0.000000 0.000000 23.844615 4.077886 0.382996 30.992625 -2.025145 -3.405700 -11.896889 21.973303 -1.322486 0.000000 0.000000 0.000000 
-0.004952 0.936644 0.006529 -0.472088 -3.011660 6.114097 -1.346622 0.150092 1.137331 -0.637531 0.255829 -6.296324 0.840774 1.936125 0.339279 0.000000 0.000000 0.000000 2.836663 0.419478 -4.413234 -0.387117 0.053043 0.346631 3.393581 9.155047 -0.411130 0.000000 0.000000 0.000000 7.695697 -0.087633 -1.220720 -2.091405 0.996942 1.018974 -3.407452 1.507529 6.779483 8.013254 -2.640380 -22.877295 0.000000 0.000000 0.000000 -24.068056 -12.209060 4.886431 -31.207752 1.929984 -4.083994 13.807133 -16.266059 -1.310086 0.000000 0.000000 0.000000 24.255477 5.476878 1.206381 32.001309 -2.709971 -3.766677 -11.798420 22.559751 -1.352430 0.000000 0.000000 0.000000 
-0.008762 0.935957 0.010878 -0.556069 -3.308590 6.435732 -0.907621 0.146040 1.243476 -0.644996 0.251034 -6.101863 1.077848 2.330465 0.040308 0.000000 0.000000 0.000000 3.005162 0.488970 -5.003299 -0.027041 0.041320 0.934156 3.762285 10.494405 -0.811880 0.000000 0.000000 0.000000 7.733910 -0.104451 -1.144697 -2.348760 1.125293 1.318816 -3.351653 1.822755 6.009407 8.051010 -2.406774 -24.229573 0.000000 0.000000 0.000000 -25.368329 -12.842392 5.216501 -31.730627 2.741295 -4.264957 14.495965 -16.065612 -1.393803 0.000000 0.000000 0.000000 25.760619 5.213766 1.024637 32.068565 -4.308489 -4.097276 -11.621710 23.541651 -1.386863 0.000000 0.000000 0.000000 
-0.013350 0.934627 0.015740 -0.803972 -2.698867 6.327397 -0.205954 0.148921 1.533624 -0.721867 0.226347 -5.182323 1.495965 2.762653 -1.208257 0.000000 0.000000 0.000000 3.384588 0.453842 -4.690966 -0.074972 0.055518 1.158196 3.263762 9.835696 -1.635844 0.000000 0.000000 0.000000 7.964389 -0.106999 -1.153617 -2.272699 1.088264 1.808352 -3.554252 1.072856 5.530497 7.995599 -2.454628 -23.897661 0.000000 0.000000 0.000000 -25.948935 -12.760235 5.305916 -32.603708 2.818544 -4.414734 14.342952 -16.573770 -1.407734 0.000000 0.000000 0.000000 25.903989 6.139461 1.439235 33.157905 -4.264745 -4.168685 -10.926774 23.102045 -1.245076 0.000000 0.000000 0.000000 
-0.018531 0.933171 0.021255 -0.921088 -2.771884 6.066528 -0.162989 0.140963 1.467679 -0.465209 0.152298 -3.358406 2.267393 3.910264 -2.785971 0.000000 0.000000 0.000000 3.209923 0.390583 -4.185410 0.450842 0.024891 1.849209 2.885656 9.949304 -2.983910 0.000000 0.000000 0.000000 7.805897 -0.154218 -0.640489 -2.552479 1.232531 2.276541 -3.226823 0.633817 4.743938 7.583597 -2.159506 -24.685033 0.000000 0.000000 0.000000 -26.363614 -13.092679 5.692055 -34.483936 2.548575 -4.618429 14.079266 -17.203275 -1.410933 0.000000 0.000000 0.000000 26.200947 6.625102 1.511413 34.922029 -4.369615 -4.330797 -10.641946 24.191208 -1.283541 0.000000 0.000000 0.000000 
